<?xml version="1.0" encoding="utf-8"?><!-- Uploaded to: SVG Repo, www.svgrepo.com, Generator: SVG Repo Mixer Tools -->
<svg version="1.1" id="Uploaded to svgrepo.com" xmlns="http://www.w3.org/2000/svg" xmlns:xlink="http://www.w3.org/1999/xlink" 
	 width="800px" height="800px" viewBox="0 0 32 32" xml:space="preserve">
<style type="text/css">
	.sharpcorners_een{fill:#111918;}
</style>
<path class="sharpcorners_een" d="M14,17H4V8h10V17z M11.767,1.819c1.745,0,3.34,1.765,4.233,3.349
	c0.888-1.576,2.484-3.349,4.233-3.349c2.293,0,3.638,3.191,2.125,4.181C21.253,6.723,18,7,16,7s-5.254-0.277-6.358-1
	C8.129,5.01,9.474,1.819,11.767,1.819z M16.684,5.991c2.274-0.06,4.486-0.408,5.127-0.828c0.241-0.158,0.215-0.587,0.12-0.906
	c-0.213-0.714-0.864-1.438-1.697-1.438C18.745,2.819,17.417,4.692,16.684,5.991z M10.189,5.163c0.641,0.419,2.853,0.768,5.127,0.828
	c-0.739-1.312-2.072-3.172-3.549-3.172c-0.833,0-1.484,0.723-1.697,1.438C9.974,4.577,9.948,5.006,10.189,5.163z M18,8v9h10V8H18z
	 M17,8h-2v10H4v2h11v10h2V20h11v-2H17V8z M4,30h10v-9H4V30z M18,30h10v-9H18V30z"/>
</svg>